# xmcd
#
# Track frame offsets: 
#        150
#        13794
#        27720
#        43729
#        63152
#        90465
#        108909
#        121786
#        136193
#        160510
#        177825
#        200361
#        220252
#        240946
#        259770
#        278667
#        294664
#        312913
#        334707
#
# Disc length: 4687 seconds
#
# Revision: 2
# Processed by: cddbd v1.5.2PL0 Copyright (c) Steve Scherf et al.
# Submitted via: ExactAudioCopy v0.99pb3
#
DISCID=03124d13
DTITLE=Various Artist - Greetings from Fargo
DYEAR=1900
DGENRE=Native American
TTITLE0=Richard Burner - Born Into Fiving It Up
TTITLE1=Beulah - Your Mother Loves You Son
TTITLE2=White Hassle - Health Food Store
TTITLE3=Clem Snyde - Happy Birthday
TTITLE4=Jesse Sykes - The Dreaming Dead
TTITLE5=Andrew Bird - Action Adventure
TTITLE6=Shearwater - The Kind
TTITLE7=Paula Frazer - Like a Ghost
TTITLE8=Great Lake Swimmers - Moving Shaking
TTITLE9=Chris Whitley - Hotel Vast Horizon
TTITLE10=Ben Weaver - Handed Down
TTITLE11=The Sid Hillman Quartet - Los Angeles 
TTITLE12=John Trudell - Putting a Face on God
TTITLE13=Stateside - I Don't Mind
TTITLE14=Hazy Malaze - Satisfy the Jones
TTITLE15=Kevin Salem - Kindness
TTITLE16=Mother Superior - Four Walls
TTITLE17=Alice Texas - Trampis Haire
TTITLE18=Neal Casal - It's Not Enough
EXTD=
EXTT0=
EXTT1=
EXTT2=
EXTT3=
EXTT4=
EXTT5=
EXTT6=
EXTT7=
EXTT8=
EXTT9=
EXTT10=
EXTT11=
EXTT12=
EXTT13=
EXTT14=
EXTT15=
EXTT16=
EXTT17=
EXTT18=
PLAYORDER=
